<?xml version="1.0" encoding="utf-8"?>
<!-- Generator: Adobe Illustrator 21.0.0, SVG Export Plug-In . SVG Version: 6.00 Build 0)  -->
<svg version="1.1" id="Layer_1" xmlns="http://www.w3.org/2000/svg" xmlns:xlink="http://www.w3.org/1999/xlink" x="0px" y="0px"
	 viewBox="0 0 75 75" style="enable-background:new 0 0 75 75;" xml:space="preserve">
<style type="text/css">
	.st0{fill:#FFFFFF;}
	.st1{fill:url(#SVGID_1_);}
	.st2{fill:url(#SVGID_2_);}
	.st3{fill:url(#SVGID_3_);}
</style>
<title>insta</title>
<g>
	<g>
		<path class="st0" d="M37.5,27.7c3.6,0,4,0,5.4,0.1c0.8,0,1.7,0.2,2.5,0.5c1.2,0.4,2.1,1.4,2.5,2.5c0.3,0.8,0.4,1.6,0.5,2.5
			c0.1,1.4,0.1,1.8,0.1,5.4s0,4-0.1,5.4c0,0.8-0.2,1.7-0.5,2.5c-0.4,1.2-1.4,2.1-2.5,2.5c-0.8,0.3-1.6,0.4-2.5,0.5
			c-1.4,0.1-1.8,0.1-5.4,0.1s-4,0-5.4-0.1c-0.8,0-1.7-0.2-2.5-0.5c-1.2-0.4-2.1-1.4-2.5-2.5c-0.3-0.8-0.4-1.6-0.5-2.5
			c-0.1-1.4-0.1-1.8-0.1-5.4s0-4,0.1-5.4c0-0.8,0.2-1.7,0.5-2.5c0.4-1.2,1.4-2.1,2.5-2.5c0.8-0.3,1.6-0.4,2.5-0.5
			C33.5,27.7,33.9,27.7,37.5,27.7 M37.5,25.3c-3.6,0-4.1,0-5.5,0.1c-1.1,0-2.2,0.2-3.2,0.6c-1.8,0.7-3.2,2.1-3.9,3.9
			c-0.4,1-0.6,2.1-0.6,3.2c-0.1,1.4-0.1,1.9-0.1,5.5s0,4.1,0.1,5.5c0,1.1,0.2,2.2,0.6,3.2c0.7,1.8,2.1,3.2,3.9,3.9
			c1,0.4,2.1,0.6,3.2,0.6c1.4,0.1,1.9,0.1,5.5,0.1s4.1,0,5.5-0.1c1.1,0,2.2-0.2,3.2-0.6c1.8-0.7,3.2-2.1,3.9-3.9
			c0.4-1,0.6-2.1,0.6-3.2c0.1-1.4,0.1-1.9,0.1-5.5s0-4.1-0.1-5.5c0-1.1-0.2-2.2-0.6-3.2c-0.7-1.8-2.1-3.2-3.9-3.9
			c-1-0.4-2.1-0.6-3.2-0.6C41.6,25.3,41.1,25.3,37.5,25.3C37.5,25.3,37.5,25.3,37.5,25.3z"/>
		<path class="st0" d="M37.5,31.8c-3.8,0-6.8,3.1-6.8,6.8c0,3.8,3.1,6.8,6.8,6.8c3.8,0,6.8-3.1,6.8-6.8S41.3,31.8,37.5,31.8
			L37.5,31.8z M37.5,43.1c-2.5,0-4.4-2-4.4-4.4s2-4.4,4.4-4.4c2.5,0,4.4,2,4.4,4.4c0,0,0,0,0,0C41.9,41.1,40,43.1,37.5,43.1z"/>
		<circle class="st0" cx="44.6" cy="31.5" r="1.6"/>
	</g>
	<g>
		<linearGradient id="SVGID_1_" gradientUnits="userSpaceOnUse" x1="26.4133" y1="27.5475" x2="48.5867" y2="49.721">
			<stop  offset="0" style="stop-color:#DC2430"/>
			<stop  offset="1" style="stop-color:#7B4397"/>
		</linearGradient>
		<path class="st1" d="M37.5,27.7c3.6,0,4,0,5.4,0.1c0.8,0,1.7,0.2,2.5,0.5c1.2,0.4,2.1,1.4,2.5,2.5c0.3,0.8,0.4,1.6,0.5,2.5
			c0.1,1.4,0.1,1.8,0.1,5.4s0,4-0.1,5.4c0,0.8-0.2,1.7-0.5,2.5c-0.4,1.2-1.4,2.1-2.5,2.5c-0.8,0.3-1.6,0.4-2.5,0.5
			c-1.4,0.1-1.8,0.1-5.4,0.1s-4,0-5.4-0.1c-0.8,0-1.7-0.2-2.5-0.5c-1.2-0.4-2.1-1.4-2.5-2.5c-0.3-0.8-0.4-1.6-0.5-2.5
			c-0.1-1.4-0.1-1.8-0.1-5.4s0-4,0.1-5.4c0-0.8,0.2-1.7,0.5-2.5c0.4-1.2,1.4-2.1,2.5-2.5c0.8-0.3,1.6-0.4,2.5-0.5
			C33.5,27.7,33.9,27.7,37.5,27.7 M37.5,25.3c-3.6,0-4.1,0-5.5,0.1c-1.1,0-2.2,0.2-3.2,0.6c-1.8,0.7-3.2,2.1-3.9,3.9
			c-0.4,1-0.6,2.1-0.6,3.2c-0.1,1.4-0.1,1.9-0.1,5.5s0,4.1,0.1,5.5c0,1.1,0.2,2.2,0.6,3.2c0.7,1.8,2.1,3.2,3.9,3.9
			c1,0.4,2.1,0.6,3.2,0.6c1.4,0.1,1.9,0.1,5.5,0.1s4.1,0,5.5-0.1c1.1,0,2.2-0.2,3.2-0.6c1.8-0.7,3.2-2.1,3.9-3.9
			c0.4-1,0.6-2.1,0.6-3.2c0.1-1.4,0.1-1.9,0.1-5.5s0-4.1-0.1-5.5c0-1.1-0.2-2.2-0.6-3.2c-0.7-1.8-2.1-3.2-3.9-3.9
			c-1-0.4-2.1-0.6-3.2-0.6C41.6,25.3,41.1,25.3,37.5,25.3C37.5,25.3,37.5,25.3,37.5,25.3z"/>
		<linearGradient id="SVGID_2_" gradientUnits="userSpaceOnUse" x1="26.4133" y1="27.5475" x2="48.5867" y2="49.721">
			<stop  offset="0" style="stop-color:#DC2430"/>
			<stop  offset="1" style="stop-color:#7B4397"/>
		</linearGradient>
		<path class="st2" d="M37.5,31.8c-3.8,0-6.8,3.1-6.8,6.8c0,3.8,3.1,6.8,6.8,6.8c3.8,0,6.8-3.1,6.8-6.8S41.3,31.8,37.5,31.8
			L37.5,31.8z M37.5,43.1c-2.5,0-4.4-2-4.4-4.4s2-4.4,4.4-4.4c2.5,0,4.4,2,4.4,4.4c0,0,0,0,0,0C41.9,41.1,40,43.1,37.5,43.1z"/>
		<linearGradient id="SVGID_3_" gradientUnits="userSpaceOnUse" x1="26.4133" y1="27.5475" x2="48.5867" y2="49.721">
			<stop  offset="0" style="stop-color:#DC2430"/>
			<stop  offset="1" style="stop-color:#7B4397"/>
		</linearGradient>
		<circle class="st3" cx="44.6" cy="31.5" r="1.6"/>
	</g>
</g>
</svg>
