<?xml version="1.0" encoding="utf-8"?>
<!-- Generator: Adobe Illustrator 21.0.0, SVG Export Plug-In . SVG Version: 6.00 Build 0)  -->
<svg version="1.1" id="Layer_1" xmlns="http://www.w3.org/2000/svg" xmlns:xlink="http://www.w3.org/1999/xlink" x="0px" y="0px"
	 viewBox="0 0 75 75" style="enable-background:new 0 0 75 75;" xml:space="preserve">
<style type="text/css">
	.st0{fill:#FFFFFF;}
	.st1{fill:url(#SVGID_1_);}
	.st2{fill:url(#SVGID_2_);}
	.st3{fill:url(#SVGID_3_);}
	.st4{fill:url(#SVGID_4_);}
</style>
<title>fb</title>
<g>
	<g>
		<path class="st0" d="M50.6,30.1L50.6,30.1L50.6,30.1L42.3,26c-0.1,0-0.1,0-0.2-0.1c-0.1,0-0.1,0-0.2,0c-0.3,0-0.6,0.2-0.8,0.4
			L36.4,34l5.9,9.7l8.3-13.4C50.6,30.2,50.6,30.1,50.6,30.1z"/>
		<polygon class="st0" points="33.8,32.2 33.8,41 41.6,44.9 		"/>
		<path class="st0" d="M42.7,45.5l6.4,3.2c0.8,0.4,1.5,0.1,1.5-0.7V32.6L42.7,45.5z"/>
		<path class="st0" d="M32.4,30.1l-8-4C24.2,26,24.1,26,24,26c-0.3,0-0.6,0.3-0.6,0.7v0.1V44c0,0.5,0.3,1,0.8,1.2l7.1,3.5
			c0.2,0.1,0.3,0.1,0.5,0.1c0.4,0,0.8-0.4,0.8-0.8v-0.1L32.4,30.1C32.5,30.1,32.4,30.1,32.4,30.1z"/>
	</g>
	<g>
		<linearGradient id="SVGID_1_" gradientUnits="userSpaceOnUse" x1="23.4" y1="37.3882" x2="50.6" y2="37.3882">
			<stop  offset="0" style="stop-color:#DC2430"/>
			<stop  offset="1" style="stop-color:#7B4397"/>
		</linearGradient>
		<path class="st1" d="M50.6,30.1L50.6,30.1L50.6,30.1L42.3,26c-0.1,0-0.1,0-0.2-0.1c-0.1,0-0.1,0-0.2,0c-0.3,0-0.6,0.2-0.8,0.4
			L36.4,34l5.9,9.7l8.3-13.4C50.6,30.2,50.6,30.1,50.6,30.1z"/>
		<linearGradient id="SVGID_2_" gradientUnits="userSpaceOnUse" x1="23.4" y1="37.3882" x2="50.6" y2="37.3882">
			<stop  offset="0" style="stop-color:#DC2430"/>
			<stop  offset="1" style="stop-color:#7B4397"/>
		</linearGradient>
		<polygon class="st2" points="33.8,32.2 33.8,41 41.6,44.9 		"/>
		<linearGradient id="SVGID_3_" gradientUnits="userSpaceOnUse" x1="23.4" y1="37.3882" x2="50.6" y2="37.3882">
			<stop  offset="0" style="stop-color:#DC2430"/>
			<stop  offset="1" style="stop-color:#7B4397"/>
		</linearGradient>
		<path class="st3" d="M42.7,45.5l6.4,3.2c0.8,0.4,1.5,0.1,1.5-0.7V32.6L42.7,45.5z"/>
		<linearGradient id="SVGID_4_" gradientUnits="userSpaceOnUse" x1="23.4" y1="37.3882" x2="50.6" y2="37.3882">
			<stop  offset="0" style="stop-color:#DC2430"/>
			<stop  offset="1" style="stop-color:#7B4397"/>
		</linearGradient>
		<path class="st4" d="M32.4,30.1l-8-4C24.2,26,24.1,26,24,26c-0.3,0-0.6,0.3-0.6,0.7v0.1V44c0,0.5,0.3,1,0.8,1.2l7.1,3.5
			c0.2,0.1,0.3,0.1,0.5,0.1c0.4,0,0.8-0.4,0.8-0.8v-0.1L32.4,30.1C32.5,30.1,32.4,30.1,32.4,30.1z"/>
	</g>
</g>
</svg>
