<?xml version="1.0" encoding="utf-8"?>
<!-- Generator: Adobe Illustrator 21.0.0, SVG Export Plug-In . SVG Version: 6.00 Build 0)  -->
<svg version="1.1" id="Layer_2" xmlns="http://www.w3.org/2000/svg" xmlns:xlink="http://www.w3.org/1999/xlink" x="0px" y="0px"
	 viewBox="0 0 1329.1 576.1" style="enable-background:new 0 0 1329.1 576.1;" xml:space="preserve">
<style type="text/css">
	.st0{fill:#FFFFFF;}
	.st1{fill:url(#SVGID_1_);}
	.st2{fill:url(#SVGID_2_);}
	.st3{fill:url(#SVGID_3_);}
	.st4{fill:url(#SVGID_4_);}
	.st5{fill:url(#SVGID_5_);}
	.st6{fill:url(#SVGID_6_);}
	.st7{fill:url(#SVGID_7_);}
	.st8{fill:url(#SVGID_8_);}
	.st9{fill:url(#SVGID_9_);}
	.st10{fill:url(#SVGID_10_);}
	.st11{fill:url(#SVGID_11_);}
	.st12{fill:url(#SVGID_12_);}
	.st13{fill:url(#SVGID_13_);}
	.st14{fill:url(#SVGID_14_);}
	.st15{fill:url(#SVGID_15_);}
	.st16{fill:url(#SVGID_16_);}
	.st17{fill:url(#SVGID_17_);}
	.st18{fill:url(#SVGID_18_);}
	.st19{fill:url(#SVGID_19_);}
	.st20{fill:url(#SVGID_20_);}
	.st21{fill:url(#SVGID_21_);}
	.st22{fill:url(#SVGID_22_);}
	.st23{fill:#7B4397;}
</style>
<title>usacs</title>
<g>
	<g>
		<path class="st0" d="M238.9,402.5c-15,0-28.5-1.9-40.4-5.7c-11.3-3.5-21.8-9.4-30.5-17.6c-8.4-7.9-14.8-17.9-19.3-29.9
			S142,323,142,306.6V189.2h59.3v116.5c0,15.2,3.5,26.4,10.4,33.7c6.9,7.2,16.2,10.9,28,10.9c11.6,0,21-3.5,27.9-10.5
			c6.9-6.9,10.4-17.9,10.4-32.7V189.2h59.3v116.2c0,16.9-2.3,31.5-7,43.9c-4.7,12.2-11.2,22.4-19.8,30.2
			c-8.8,8.1-19.4,14.1-30.8,17.6C267.3,400.7,253.9,402.5,238.9,402.5z"/>
		<path class="st0" d="M453.7,402.2c-18.2,0.1-36.2-2.9-53.4-8.8c-16.5-5.6-31.7-14.5-44.7-26.2l32.4-38.7
			c20.9,16.7,43.6,25.1,68,25.1c7.8,0,13.7-1.2,17.8-3.8c3.9-2.1,6.2-6.2,6.1-10.6v-0.6c0-2-0.5-4.1-1.5-5.8c-1.4-2-3.3-3.8-5.5-4.9
			c-3.5-1.9-7-3.5-10.8-4.6c-4.5-1.5-10.3-3.1-17.6-4.6c-11.2-2.6-21.5-5.4-31.1-8.5c-8.9-2.8-17.3-6.7-25-11.9
			c-6.9-4.7-12.7-10.9-16.7-18.3c-4.1-7.2-6.1-16.2-6.1-27v-0.6c-0.1-9.3,1.7-18.5,5.5-26.8c3.7-8.2,9.3-15.4,16.1-21.2
			c7.6-6.2,16.2-10.9,25.6-13.9c10.9-3.5,22.4-5.1,33.8-4.9c18,0,34,2.3,48.1,7c13.9,4.6,26.8,11.7,38.2,20.9l-29,41.2
			c-9.1-6.5-19-11.7-29.5-15.4c-9.4-3.4-19.2-5.1-29.2-5.2c-6.9,0-12.2,1.3-15.7,3.9c-3.5,2.6-5.2,5.8-5.2,9.6v0.6
			c0,2.2,0.5,4.4,1.6,6.2c1.4,2.1,3.4,3.8,5.7,4.9c3.6,1.8,7.2,3.4,11,4.5c4.7,1.5,10.6,3.1,17.8,4.6c11,2.3,21.8,5.4,32.5,9.1
			c8.8,3.1,17.1,7.3,24.7,12.7c6.5,4.7,11.8,10.9,15.5,18.1c3.6,7,5.4,15.5,5.4,25.2v0.6c0,10.7-2,20.3-6.1,28.7
			s-9.9,15.6-17.3,21.3c-8,6.1-16.9,10.7-26.6,13.5C477.2,400.8,465.5,402.4,453.7,402.2z"/>
		<path class="st0" d="M639,187.7h55.9l89.2,211h-62.3l-15.3-37.5h-80.8l-14.8,37.5h-61L639,187.7z M689.9,316.4l-23.4-59.5
			l-23.7,59.5H689.9z"/>
		<path class="st0" d="M905.4,402.8c-14.5,0.1-28.8-2.7-42.2-8.1c-12.9-5.2-24.5-12.9-34.3-22.6c-20.5-20.6-31.8-48.6-31.5-77.7
			v-0.6c-0.2-28.9,11.1-56.8,31.4-77.4c9.9-10,21.8-17.9,34.9-23.2c14-5.7,29-8.6,44.1-8.4c9.9-0.1,19.7,0.9,29.3,3.2
			c8.4,1.9,16.4,5,24.1,9c7.1,3.8,13.8,8.5,19.8,13.9c5.8,5.3,11.1,11.2,15.7,17.7L953,262.5c-5.5-7.1-12.1-13.2-19.8-18
			c-7.1-4.4-15.8-6.5-26-6.6c-6.9-0.1-13.9,1.4-20.2,4.4c-6,2.9-11.3,6.8-15.7,11.8c-4.5,5.2-8,11.2-10.3,17.7
			c-2.6,6.9-3.8,14.2-3.8,21.5v0.6c0,7.5,1.2,14.9,3.8,22c2.2,6.5,5.8,12.6,10.3,17.8c4.4,5,9.7,9,15.7,11.8
			c6.3,3,13.3,4.4,20.2,4.4c5,0,10-0.5,14.8-1.8c4.3-1.1,8.5-2.9,12.2-5.2c3.8-2.3,7.2-5,10.5-8.1c3.5-3.3,6.7-6.7,9.7-10.3
			l43.7,31.1c-4.9,6.7-10.4,13.1-16.3,18.9c-6,5.8-12.8,10.9-20,15c-8,4.4-16.3,7.7-25.1,9.9C926.4,401.8,915.9,402.9,905.4,402.8z"
			/>
		<path class="st0" d="M1105.3,402.2c-18.2,0.1-36.2-2.9-53.4-8.8c-16.5-5.6-31.7-14.5-44.7-26.2l32.4-38.7
			c20.9,16.7,43.6,25.1,68,25.1c7.8,0,13.7-1.2,17.8-3.8c3.9-2.1,6.2-6.2,6.1-10.6v-0.6c0-2-0.5-4.1-1.5-5.8c-1.4-2-3.3-3.8-5.5-4.9
			c-3.5-1.9-7-3.5-10.8-4.6c-4.5-1.5-10.3-3.1-17.6-4.6c-11.1-2.6-21.5-5.4-31.1-8.5c-8.9-2.8-17.3-6.7-25-11.9
			c-6.9-4.7-12.7-10.9-16.7-18.3c-4.1-7.2-6.1-16.2-6.1-27v-0.6c-0.1-9.3,1.7-18.5,5.5-26.8c3.7-8.2,9.3-15.4,16.1-21.2
			c7.6-6.2,16.2-10.9,25.6-13.9c10.9-3.5,22.4-5.1,33.8-4.9c18,0,34,2.3,48.1,7c13.9,4.6,26.8,11.7,38.2,20.9l-29,41.1
			c-9.1-6.5-19-11.7-29.5-15.4c-9.4-3.4-19.2-5.1-29.2-5.2c-6.9,0-12.2,1.3-15.7,3.9c-3.5,2.6-5.2,5.8-5.2,9.6v0.6
			c0,2.2,0.5,4.4,1.6,6.2c1.4,2.1,3.4,3.8,5.7,4.9c3.6,1.8,7.2,3.4,11,4.5c4.7,1.5,10.6,3.1,17.8,4.6c11,2.3,21.8,5.4,32.5,9.1
			c8.8,3.1,17.1,7.3,24.7,12.7c6.5,4.7,11.8,10.9,15.5,18.1c3.6,7,5.4,15.5,5.4,25.2v0.6c0,10.7-2,20.3-6.1,28.7
			c-4.1,8.4-9.9,15.6-17.3,21.3c-8,6.1-16.9,10.7-26.6,13.5C1128.7,400.8,1117,402.4,1105.3,402.2z"/>
		<path class="st0" d="M857.3,178.1c1.3-0.5,2.8-1.1,4.1-1.6c-16.1-4.9-33.1,4.2-38.1,20.3c-0.3,0.9-0.5,1.9-0.7,2.9
			C832.9,190.5,844.7,183.3,857.3,178.1z"/>
		<path class="st0" d="M952.1,157.8l-1.9,16.8c4.2,1.3,8.4,3,12.5,4.8l2.4-21.3c16.5-3.2,27.4-19.2,24.1-35.7S970,95,953.5,98.2
			s-27.4,19.2-24.1,35.7C931.6,145.7,940.6,155,952.1,157.8z M959.3,110.6c9.7,0,17.6,7.9,17.6,17.6s-7.9,17.6-17.6,17.6
			s-17.6-7.9-17.6-17.6C941.7,118.5,949.6,110.6,959.3,110.6L959.3,110.6z"/>
		<path class="st0" d="M729.7,227.5c1.8,2.3,3.1,5.2,3.5,8.2l8.1,19.2c3.3-4.9,5-10.7,5-16.6c0-0.1,0-0.1,0-0.1l54.9-13.6
			c3.8-5.8,8.1-11.3,12.9-16.4l-70.5,17.5c-4.1-8.9-12.2-15.3-21.8-17.1L729.7,227.5z"/>
		<path class="st0" d="M1077.3,170.5c-2.4-9.4,3.2-19,12.6-21.4s19,3.2,21.4,12.6c0.7,2.6,0.7,5.2,0.2,7.9c4.4,0.3,8.7,0.7,12.9,1.3
			c2.7-16.6-8.8-32.3-25.3-34.8c-16.6-2.7-32.3,8.8-34.8,25.3c-0.6,4-0.5,8,0.5,11.8C1068.8,172,1073,171.1,1077.3,170.5z"/>
		<path class="st0" d="M941.8,313.7l5.9-7l2.4-21.1l-0.1,0.1l-10.2-12.9c-0.3-0.4-0.7-0.9-1.1-1.3l-6,51.8c0.2-0.2,0.4-0.3,0.5-0.5
			C936.4,319.8,939.2,316.9,941.8,313.7z"/>
		<path class="st0" d="M1029.4,314.8l1.9-2.3c-0.3-0.2-0.5-0.4-0.8-0.5c-3.3-2.2-6.4-4.8-9.3-7.6L1029.4,314.8z"/>
		<path class="st0" d="M1006.2,296.4c2.4,0,4.9-0.3,7.2-0.9c-1.7-2.3-3.3-4.7-4.7-7.2c-0.8-1.5-1.6-3.2-2.3-4.8h-0.1
			c-9.7,0-17.6-7.9-17.6-17.6c0-7.6,4.8-14.2,11.8-16.6c0-0.9,0.1-1.9,0.1-2.9l-24.9,19.3v0.1C975.7,282.7,989.4,296.4,1006.2,296.4
			z"/>
		<path class="st0" d="M217.7,265c7.6-6.1,18.6-5,24.7,2.6c6.1,7.6,5,18.6-2.6,24.7c-6.4,5.2-15.7,5.2-22.1,0v13.3c0,0.5,0,1,0,1.5
			c1.2,0.5,2.4,0.9,3.7,1.2l-1.8,12.4c0.7,2.7,2,5.1,4,7.2s4.6,3.8,7.3,4.6l3.5-23.8c16.5-3.1,27.4-19,24.3-35.5
			c-1.3-6.9-5-13.2-10.3-17.7l12.9-18.1v-22.3l-24.4,34.2c-6.3-1.7-13.1-1.4-19.1,1L217.7,265L217.7,265z"/>
		<path class="st0" d="M394.9,409.2c-0.3-0.1-0.7-0.2-1-0.4c-8.2,5.1-19,2.7-24.1-5.5c-1.3-2.1-2.1-4.5-2.6-6.9
			c-4.3-2.6-8.5-5.3-12.5-8.4c0,0.2-0.1,0.3-0.1,0.5l-38,7.1c-9.6,7.7-20.6,13.5-32.4,17c-13.7,4.3-29,6.4-45.5,6.4
			c-11.1,0.1-22.4-1-33.3-3.3l-0.4,2.9c-16.1-4.8-33.2,4.4-38,20.5s4.4,33.2,20.5,38s33.2-4.4,38-20.5c3.1-10.3,0.5-21.5-6.8-29.5
			L355,401.4c4.2,16.3,20.8,26.1,37.1,21.9c6.3-1.6,11.9-5.2,16-10.2C403.7,412,399.3,410.7,394.9,409.2z M196.5,465.5
			c-9.7,0-17.6-7.9-17.6-17.6s7.9-17.6,17.6-17.6s17.6,7.9,17.6,17.6l0,0C214,457.6,206.2,465.5,196.5,465.5z"/>
		<path class="st0" d="M125.3,252.8L60.5,237c-2.9-16.5-18.6-27.7-35.2-24.8C8.8,215-2.3,230.7,0.5,247.4
			c2.9,16.5,18.6,27.7,35.2,24.8c11.6-2,21.1-10.6,24.2-22l65.4,15.9V252.8z M30.5,259.7c-9.7,0-17.6-7.9-17.6-17.6
			c0-9.7,7.9-17.6,17.6-17.6s17.6,7.9,17.6,17.6l0,0C48.1,251.9,40.2,259.7,30.5,259.7L30.5,259.7z"/>
		<path class="st0" d="M334.5,172.6c10.1-13.5,7.5-32.6-6-42.7s-32.6-7.5-42.7,6c-8.2,10.8-8.2,25.8,0,36.6h48.7V172.6z
			 M310.1,136.7c9.7,0,17.6,7.9,17.6,17.6s-7.9,17.6-17.6,17.6c-3.5,0-6.8-1-9.8-3l-0.4-0.3c-8-5.6-9.8-16.5-4.3-24.5
			C299.1,139.6,304.4,136.7,310.1,136.7z"/>
		<path class="st0" d="M582.3,415.2c-6.1,7.5-17.3,8.5-24.7,2.3c-0.8-0.7-1.6-1.5-2.3-2.3h-14.8c6.1,15.6,23.9,23.3,39.5,17.1
			c7.9-3.1,14.1-9.3,17.1-17.1H582.3z"/>
		<path class="st0" d="M940.8,415.3c-0.8,0.2-1.6,0.4-2.4,0.6c8.4,4.8,11.3,15.6,6.4,24c-4.9,8.4-15.6,11.3-24,6.4
			c-8.4-4.8-11.3-15.6-6.4-24c0.7-1.2,1.5-2.3,2.4-3.4c-3.7,0.2-7.6,0.4-11.4,0.4c-1.3,0-2.7,0-3.9-0.1c-0.4,0.9-0.7,1.8-1,2.9
			l-9.3-3.6c-11.7-1.2-23.3-4.1-34.2-8.6c-9.2-3.8-17.9-8.6-25.8-14.4l-33.7-12.9c6.2-15.6-1.4-33.3-17-39.5
			c-0.6-0.2-1.3-0.5-1.9-0.7l20.9,49.6l2.7,6.2l97.4,37.2c2.4,16.6,18,28.1,34.6,25.6c16.6-2.4,28.1-18,25.6-34.6
			c-0.8-5.5-3.2-10.7-6.7-15.1C949,412.9,945,414.2,940.8,415.3z"/>
		<path class="st0" d="M1298.6,301.3c-7.9,0-15.4,3.1-21.1,8.5l-89.1-73.3l-7.5,10.6l89.3,73.5c-6.2,15.6,1.5,33.4,17.1,39.5
			s33.4-1.5,39.5-17.1c6.2-15.6-1.5-33.4-17.1-39.5C1306.2,302,1302.5,301.3,1298.6,301.3z M1298.6,349.2c-9.7,0-17.6-7.9-17.6-17.6
			s7.9-17.6,17.6-17.6s17.6,7.9,17.6,17.6l0,0C1316.1,341.4,1308.3,349.2,1298.6,349.2z"/>
		<path class="st0" d="M400.9,177.2c1.2-9.6,10-16.4,19.6-15.2c5,0.6,9.6,3.5,12.5,7.7c4.4-0.4,8.9-0.6,13.6-0.6c0.1,0,0.3,0,0.4,0
			c-5.6-15.8-23.1-24.1-38.9-18.5c-13.6,4.9-21.9,18.6-19.9,32.9C392.3,181,396.6,179,400.9,177.2z"/>
		<path class="st0" d="M1162.8,406.2c-4.7,2.4-9.5,4.5-14.5,6.1c9.2,3.2,14,13.2,10.8,22.4c-3.2,9.2-13.2,14-22.4,10.8
			c-9.2-3.2-14-13.2-10.8-22.4c0.8-2.3,2.1-4.5,3.8-6.3c-6.2,1-12.6,1.6-18.9,1.8l2.1,2.8c-4.1,16.3,5.7,32.9,22,37.1
			s32.9-5.7,37.1-22C1174.8,425.4,1171.3,413.8,1162.8,406.2z"/>
		<path class="st0" d="M535,194.6c2.8,1.9,5.5,4,8.2,6.1l12,9.8l-1.3,1.8l35.6,8.3l-11.9,70.1l21.9-52l2.6-15.1l3.5,0.8l5.1-12
			l-6.4-1.5l8-46.3c16.5-3.1,27.6-19,24.5-35.5s-19-27.6-35.5-24.5s-27.6,19-24.5,35.5c0.7,4.2,2.3,8.1,4.7,11.5L545,196.9
			L535,194.6z M606.6,117c9.7,0,17.6,7.9,17.6,17.6s-7.9,17.6-17.6,17.6s-17.6-7.9-17.6-17.6l0,0C589.1,124.9,596.9,117,606.6,117z
			 M590.7,160.6c2.6,1.6,5.4,2.8,8.4,3.6l-7.5,43.8l-32.7-7.7L590.7,160.6z"/>
		<path class="st0" d="M449.2,337L449.2,337c-2.4-0.6-5.3-1.3-8.4-2h-0.1h-0.1c-1.8-0.4-3.6-0.8-5.4-1.3l-0.7,0.9
			C439.4,335.8,444.3,336.6,449.2,337z"/>
		<polygon class="st0" points="695.5,377.8 685,377.8 632.6,389 626.8,403.3 699.6,387.9 		"/>
		
			<linearGradient id="SVGID_1_" gradientUnits="userSpaceOnUse" x1="6.786584e-02" y1="282.15" x2="1328.946" y2="282.15" gradientTransform="matrix(1 0 0 -1 0 578)">
			<stop  offset="0" style="stop-color:#DC2430"/>
			<stop  offset="1" style="stop-color:#7B4397"/>
		</linearGradient>
		<path class="st1" d="M238.9,402.5c-15,0-28.5-1.9-40.4-5.7c-11.3-3.5-21.8-9.4-30.5-17.6c-8.4-7.9-14.8-17.9-19.3-29.9
			S142,323,142,306.6V189.2h59.3v116.5c0,15.2,3.5,26.4,10.4,33.7c6.9,7.2,16.2,10.9,28,10.9c11.6,0,21-3.5,27.9-10.5
			c6.9-6.9,10.4-17.9,10.4-32.7V189.2h59.3v116.2c0,16.9-2.3,31.5-7,43.9c-4.7,12.2-11.2,22.4-19.8,30.2
			c-8.8,8.1-19.4,14.1-30.8,17.6C267.3,400.7,253.9,402.5,238.9,402.5z"/>
		
			<linearGradient id="SVGID_2_" gradientUnits="userSpaceOnUse" x1="6.786584e-02" y1="284.0999" x2="1328.946" y2="284.0999" gradientTransform="matrix(1 0 0 -1 0 578)">
			<stop  offset="0" style="stop-color:#DC2430"/>
			<stop  offset="1" style="stop-color:#7B4397"/>
		</linearGradient>
		<path class="st2" d="M453.7,402.2c-18.2,0.1-36.2-2.9-53.4-8.8c-16.5-5.6-31.7-14.5-44.7-26.2l32.4-38.7
			c20.9,16.7,43.6,25.1,68,25.1c7.8,0,13.7-1.2,17.8-3.8c3.9-2.1,6.2-6.2,6.1-10.6v-0.6c0-2-0.5-4.1-1.5-5.8c-1.4-2-3.3-3.8-5.5-4.9
			c-3.5-1.9-7-3.5-10.8-4.6c-4.5-1.5-10.3-3.1-17.6-4.6c-11.2-2.6-21.5-5.4-31.1-8.5c-8.9-2.8-17.3-6.7-25-11.9
			c-6.9-4.7-12.7-10.9-16.7-18.3c-4.1-7.2-6.1-16.2-6.1-27v-0.6c-0.1-9.3,1.7-18.5,5.5-26.8c3.7-8.2,9.3-15.4,16.1-21.2
			c7.6-6.2,16.2-10.9,25.6-13.9c10.9-3.5,22.4-5.1,33.8-4.9c18,0,34,2.3,48.1,7c13.9,4.6,26.8,11.7,38.2,20.9l-29,41.2
			c-9.1-6.5-19-11.7-29.5-15.4c-9.4-3.4-19.2-5.1-29.2-5.2c-6.9,0-12.2,1.3-15.7,3.9c-3.5,2.6-5.2,5.8-5.2,9.6v0.6
			c0,2.2,0.5,4.4,1.6,6.2c1.4,2.1,3.4,3.8,5.7,4.9c3.6,1.8,7.2,3.4,11,4.5c4.7,1.5,10.6,3.1,17.8,4.6c11,2.3,21.8,5.4,32.5,9.1
			c8.8,3.1,17.1,7.3,24.7,12.7c6.5,4.7,11.8,10.9,15.5,18.1c3.6,7,5.4,15.5,5.4,25.2v0.6c0,10.7-2,20.3-6.1,28.7
			s-9.9,15.6-17.3,21.3c-8,6.1-16.9,10.7-26.6,13.5C477.2,400.8,465.5,402.4,453.7,402.2z"/>
		
			<linearGradient id="SVGID_3_" gradientUnits="userSpaceOnUse" x1="6.786584e-02" y1="284.8" x2="1328.946" y2="284.8" gradientTransform="matrix(1 0 0 -1 0 578)">
			<stop  offset="0" style="stop-color:#DC2430"/>
			<stop  offset="1" style="stop-color:#7B4397"/>
		</linearGradient>
		<path class="st3" d="M639,187.7h55.9l89.2,211h-62.3l-15.3-37.5h-80.8l-14.8,37.5h-61L639,187.7z M689.9,316.4l-23.4-59.5
			l-23.7,59.5H689.9z"/>
		
			<linearGradient id="SVGID_4_" gradientUnits="userSpaceOnUse" x1="6.786584e-02" y1="284.2018" x2="1328.946" y2="284.2018" gradientTransform="matrix(1 0 0 -1 0 578)">
			<stop  offset="0" style="stop-color:#DC2430"/>
			<stop  offset="1" style="stop-color:#7B4397"/>
		</linearGradient>
		<path class="st4" d="M905.4,402.8c-14.5,0.1-28.8-2.7-42.2-8.1c-12.9-5.2-24.5-12.9-34.3-22.6c-20.5-20.6-31.8-48.6-31.5-77.7
			v-0.6c-0.2-28.9,11.1-56.8,31.4-77.4c9.9-10,21.8-17.9,34.9-23.2c14-5.7,29-8.6,44.1-8.4c9.9-0.1,19.7,0.9,29.3,3.2
			c8.4,1.9,16.4,5,24.1,9c7.1,3.8,13.8,8.5,19.8,13.9c5.8,5.3,11.1,11.2,15.7,17.7L953,262.5c-5.5-7.1-12.1-13.2-19.8-18
			c-7.1-4.4-15.8-6.5-26-6.6c-6.9-0.1-13.9,1.4-20.2,4.4c-6,2.9-11.3,6.8-15.7,11.8c-4.5,5.2-8,11.2-10.3,17.7
			c-2.6,6.9-3.8,14.2-3.8,21.5v0.6c0,7.5,1.2,14.9,3.8,22c2.2,6.5,5.8,12.6,10.3,17.8c4.4,5,9.7,9,15.7,11.8
			c6.3,3,13.3,4.4,20.2,4.4c5,0,10-0.5,14.8-1.8c4.3-1.1,8.5-2.9,12.2-5.2c3.8-2.3,7.2-5,10.5-8.1c3.5-3.3,6.7-6.7,9.7-10.3
			l43.7,31.1c-4.9,6.7-10.4,13.1-16.3,18.9c-6,5.8-12.8,10.9-20,15c-8,4.4-16.3,7.7-25.1,9.9C926.4,401.8,915.9,402.9,905.4,402.8z"
			/>
		
			<linearGradient id="SVGID_5_" gradientUnits="userSpaceOnUse" x1="6.786584e-02" y1="284.1" x2="1328.946" y2="284.1" gradientTransform="matrix(1 0 0 -1 0 578)">
			<stop  offset="0" style="stop-color:#DC2430"/>
			<stop  offset="1" style="stop-color:#7B4397"/>
		</linearGradient>
		<path class="st5" d="M1105.3,402.2c-18.2,0.1-36.2-2.9-53.4-8.8c-16.5-5.6-31.7-14.5-44.7-26.2l32.4-38.7
			c20.9,16.7,43.6,25.1,68,25.1c7.8,0,13.7-1.2,17.8-3.8c3.9-2.1,6.2-6.2,6.1-10.6v-0.6c0-2-0.5-4.1-1.5-5.8c-1.4-2-3.3-3.8-5.5-4.9
			c-3.5-1.9-7-3.5-10.8-4.6c-4.5-1.5-10.3-3.1-17.6-4.6c-11.1-2.6-21.5-5.4-31.1-8.5c-8.9-2.8-17.3-6.7-25-11.9
			c-6.9-4.7-12.7-10.9-16.7-18.3c-4.1-7.2-6.1-16.2-6.1-27v-0.6c-0.1-9.3,1.7-18.5,5.5-26.8c3.7-8.2,9.3-15.4,16.1-21.2
			c7.6-6.2,16.2-10.9,25.6-13.9c10.9-3.5,22.4-5.1,33.8-4.9c18,0,34,2.3,48.1,7c13.9,4.6,26.8,11.7,38.2,20.9l-29,41.1
			c-9.1-6.5-19-11.7-29.5-15.4c-9.4-3.4-19.2-5.1-29.2-5.2c-6.9,0-12.2,1.3-15.7,3.9c-3.5,2.6-5.2,5.8-5.2,9.6v0.6
			c0,2.2,0.5,4.4,1.6,6.2c1.4,2.1,3.4,3.8,5.7,4.9c3.6,1.8,7.2,3.4,11,4.5c4.7,1.5,10.6,3.1,17.8,4.6c11,2.3,21.8,5.4,32.5,9.1
			c8.8,3.1,17.1,7.3,24.7,12.7c6.5,4.7,11.8,10.9,15.5,18.1c3.6,7,5.4,15.5,5.4,25.2v0.6c0,10.7-2,20.3-6.1,28.7
			c-4.1,8.4-9.9,15.6-17.3,21.3c-8,6.1-16.9,10.7-26.6,13.5C1128.7,400.8,1117,402.4,1105.3,402.2z"/>
		
			<linearGradient id="SVGID_6_" gradientUnits="userSpaceOnUse" x1="6.786584e-02" y1="390.5632" x2="1328.946" y2="390.5632" gradientTransform="matrix(1 0 0 -1 0 578)">
			<stop  offset="0" style="stop-color:#DC2430"/>
			<stop  offset="1" style="stop-color:#7B4397"/>
		</linearGradient>
		<path class="st6" d="M857.3,178.1c1.3-0.5,2.8-1.1,4.1-1.6c-16.1-4.9-33.1,4.2-38.1,20.3c-0.3,0.9-0.5,1.9-0.7,2.9
			C832.9,190.5,844.7,183.3,857.3,178.1z"/>
		
			<linearGradient id="SVGID_7_" gradientUnits="userSpaceOnUse" x1="6.786584e-02" y1="439.4789" x2="1328.946" y2="439.4789" gradientTransform="matrix(1 0 0 -1 0 578)">
			<stop  offset="0" style="stop-color:#DC2430"/>
			<stop  offset="1" style="stop-color:#7B4397"/>
		</linearGradient>
		<path class="st7" d="M952.1,157.8l-1.9,16.8c4.2,1.3,8.4,3,12.5,4.8l2.4-21.3c16.5-3.2,27.4-19.2,24.1-35.7S970,95,953.5,98.2
			s-27.4,19.2-24.1,35.7C931.6,145.7,940.6,155,952.1,157.8z M959.3,110.6c9.7,0,17.6,7.9,17.6,17.6s-7.9,17.6-17.6,17.6
			s-17.6-7.9-17.6-17.6C941.7,118.5,949.6,110.6,959.3,110.6L959.3,110.6z"/>
		
			<linearGradient id="SVGID_8_" gradientUnits="userSpaceOnUse" x1="6.786584e-02" y1="346.45" x2="1328.946" y2="346.45" gradientTransform="matrix(1 0 0 -1 0 578)">
			<stop  offset="0" style="stop-color:#DC2430"/>
			<stop  offset="1" style="stop-color:#7B4397"/>
		</linearGradient>
		<path class="st8" d="M729.7,227.5c1.8,2.3,3.1,5.2,3.5,8.2l8.1,19.2c3.3-4.9,5-10.7,5-16.6c0-0.1,0-0.1,0-0.1l54.9-13.6
			c3.8-5.8,8.1-11.3,12.9-16.4l-70.5,17.5c-4.1-8.9-12.2-15.3-21.8-17.1L729.7,227.5z"/>
		
			<linearGradient id="SVGID_9_" gradientUnits="userSpaceOnUse" x1="6.786584e-02" y1="423.5467" x2="1328.946" y2="423.5467" gradientTransform="matrix(1 0 0 -1 0 578)">
			<stop  offset="0" style="stop-color:#DC2430"/>
			<stop  offset="1" style="stop-color:#7B4397"/>
		</linearGradient>
		<path class="st9" d="M1077.3,170.5c-2.4-9.4,3.2-19,12.6-21.4s19,3.2,21.4,12.6c0.7,2.6,0.7,5.2,0.2,7.9c4.4,0.3,8.7,0.7,12.9,1.3
			c2.7-16.6-8.8-32.3-25.3-34.8c-16.6-2.7-32.3,8.8-34.8,25.3c-0.6,4-0.5,8,0.5,11.8C1068.8,172,1073,171.1,1077.3,170.5z"/>
		
			<linearGradient id="SVGID_10_" gradientUnits="userSpaceOnUse" x1="6.786584e-02" y1="280.6" x2="1328.946" y2="280.6" gradientTransform="matrix(1 0 0 -1 0 578)">
			<stop  offset="0" style="stop-color:#DC2430"/>
			<stop  offset="1" style="stop-color:#7B4397"/>
		</linearGradient>
		<path class="st10" d="M941.8,313.7l5.9-7l2.4-21.1l-0.1,0.1l-10.2-12.9c-0.3-0.4-0.7-0.9-1.1-1.3l-6,51.8c0.2-0.2,0.4-0.3,0.5-0.5
			C936.4,319.8,939.2,316.9,941.8,313.7z"/>
		
			<linearGradient id="SVGID_11_" gradientUnits="userSpaceOnUse" x1="6.786584e-02" y1="306.6" x2="1328.946" y2="306.6" gradientTransform="matrix(1 0 0 -1 0 578)">
			<stop  offset="0" style="stop-color:#DC2430"/>
			<stop  offset="1" style="stop-color:#7B4397"/>
		</linearGradient>
		<path class="st11" d="M1006.2,296.4c2.4,0,4.9-0.3,7.2-0.9c-1.7-2.3-3.3-4.7-4.7-7.2c-0.8-1.5-1.6-3.2-2.3-4.8h-0.1
			c-9.7,0-17.6-7.9-17.6-17.6c0-7.6,4.8-14.2,11.8-16.6c0-0.9,0.1-1.9,0.1-2.9l-24.9,19.3v0.1C975.7,282.7,989.4,296.4,1006.2,296.4
			z"/>
		
			<linearGradient id="SVGID_12_" gradientUnits="userSpaceOnUse" x1="6.786584e-02" y1="304.2" x2="1328.946" y2="304.2" gradientTransform="matrix(1 0 0 -1 0 578)">
			<stop  offset="0" style="stop-color:#DC2430"/>
			<stop  offset="1" style="stop-color:#7B4397"/>
		</linearGradient>
		<path class="st12" d="M217.7,265c7.6-6.1,18.6-5,24.7,2.6c6.1,7.6,5,18.6-2.6,24.7c-6.4,5.2-15.7,5.2-22.1,0v13.3c0,0.5,0,1,0,1.5
			c1.2,0.5,2.4,0.9,3.7,1.2l-1.8,12.4c0.7,2.7,2,5.1,4,7.2s4.6,3.8,7.3,4.6l3.5-23.8c16.5-3.1,27.4-19,24.3-35.5
			c-1.3-6.9-5-13.2-10.3-17.7l12.9-18.1v-22.3l-24.4,34.2c-6.3-1.7-13.1-1.4-19.1,1L217.7,265L217.7,265z"/>
		
			<linearGradient id="SVGID_13_" gradientUnits="userSpaceOnUse" x1="6.786584e-02" y1="144.8137" x2="1328.946" y2="144.8137" gradientTransform="matrix(1 0 0 -1 0 578)">
			<stop  offset="0" style="stop-color:#DC2430"/>
			<stop  offset="1" style="stop-color:#7B4397"/>
		</linearGradient>
		<path class="st13" d="M394.9,409.2c-0.3-0.1-0.7-0.2-1-0.4c-8.2,5.1-19,2.7-24.1-5.5c-1.3-2.1-2.1-4.5-2.6-6.9
			c-4.3-2.6-8.5-5.3-12.5-8.4c0,0.2-0.1,0.3-0.1,0.5l-38,7.1c-9.6,7.7-20.6,13.5-32.4,17c-13.7,4.3-29,6.4-45.5,6.4
			c-11.1,0.1-22.4-1-33.3-3.3l-0.4,2.9c-16.1-4.8-33.2,4.4-38,20.5s4.4,33.2,20.5,38s33.2-4.4,38-20.5c3.1-10.3,0.5-21.5-6.8-29.5
			L355,401.4c4.2,16.3,20.8,26.1,37.1,21.9c6.3-1.6,11.9-5.2,16-10.2C403.7,412,399.3,410.7,394.9,409.2z M196.5,465.5
			c-9.7,0-17.6-7.9-17.6-17.6s7.9-17.6,17.6-17.6s17.6,7.9,17.6,17.6l0,0C214,457.6,206.2,465.5,196.5,465.5z"/>
		
			<linearGradient id="SVGID_14_" gradientUnits="userSpaceOnUse" x1="6.786584e-02" y1="335.8" x2="1328.946" y2="335.8" gradientTransform="matrix(1 0 0 -1 0 578)">
			<stop  offset="0" style="stop-color:#DC2430"/>
			<stop  offset="1" style="stop-color:#7B4397"/>
		</linearGradient>
		<path class="st14" d="M125.3,252.8L60.5,237c-2.9-16.5-18.6-27.7-35.2-24.8C8.8,215-2.3,230.7,0.5,247.4
			c2.9,16.5,18.6,27.7,35.2,24.8c11.6-2,21.1-10.6,24.2-22l65.4,15.9V252.8z M30.5,259.7c-9.7,0-17.6-7.9-17.6-17.6
			c0-9.7,7.9-17.6,17.6-17.6s17.6,7.9,17.6,17.6l0,0C48.1,251.9,40.2,259.7,30.5,259.7L30.5,259.7z"/>
		
			<linearGradient id="SVGID_15_" gradientUnits="userSpaceOnUse" x1="6.786584e-02" y1="429.8212" x2="1328.946" y2="429.8212" gradientTransform="matrix(1 0 0 -1 0 578)">
			<stop  offset="0" style="stop-color:#DC2430"/>
			<stop  offset="1" style="stop-color:#7B4397"/>
		</linearGradient>
		<path class="st15" d="M334.5,172.6c10.1-13.5,7.5-32.6-6-42.7s-32.6-7.5-42.7,6c-8.2,10.8-8.2,25.8,0,36.6h48.7V172.6z
			 M310.1,136.7c9.7,0,17.6,7.9,17.6,17.6s-7.9,17.6-17.6,17.6c-3.5,0-6.8-1-9.8-3l-0.4-0.3c-8-5.6-9.8-16.5-4.3-24.5
			C299.1,139.6,304.4,136.7,310.1,136.7z"/>
		
			<linearGradient id="SVGID_16_" gradientUnits="userSpaceOnUse" x1="6.786584e-02" y1="153.177" x2="1328.946" y2="153.177" gradientTransform="matrix(1 0 0 -1 0 578)">
			<stop  offset="0" style="stop-color:#DC2430"/>
			<stop  offset="1" style="stop-color:#7B4397"/>
		</linearGradient>
		<path class="st16" d="M582.3,415.2c-6.1,7.5-17.3,8.5-24.7,2.3c-0.8-0.7-1.6-1.5-2.3-2.3h-14.8c6.1,15.6,23.9,23.3,39.5,17.1
			c7.9-3.1,14.1-9.3,17.1-17.1H582.3z"/>
		
			<linearGradient id="SVGID_17_" gradientUnits="userSpaceOnUse" x1="6.786584e-02" y1="176.1293" x2="1328.946" y2="176.1293" gradientTransform="matrix(1 0 0 -1 0 578)">
			<stop  offset="0" style="stop-color:#DC2430"/>
			<stop  offset="1" style="stop-color:#7B4397"/>
		</linearGradient>
		<path class="st17" d="M940.8,415.3c-0.8,0.2-1.6,0.4-2.4,0.6c8.4,4.8,11.3,15.6,6.4,24c-4.9,8.4-15.6,11.3-24,6.4
			c-8.4-4.8-11.3-15.6-6.4-24c0.7-1.2,1.5-2.3,2.4-3.4c-3.7,0.2-7.6,0.4-11.4,0.4c-1.3,0-2.7,0-3.9-0.1c-0.4,0.9-0.7,1.8-1,2.9
			l-9.3-3.6c-11.7-1.2-23.3-4.1-34.2-8.6c-9.2-3.8-17.9-8.6-25.8-14.4l-33.7-12.9c6.2-15.6-1.4-33.3-17-39.5
			c-0.6-0.2-1.3-0.5-1.9-0.7l20.9,49.6l2.7,6.2l97.4,37.2c2.4,16.6,18,28.1,34.6,25.6c16.6-2.4,28.1-18,25.6-34.6
			c-0.8-5.5-3.2-10.7-6.7-15.1C949,412.9,945,414.2,940.8,415.3z"/>
		
			<linearGradient id="SVGID_18_" gradientUnits="userSpaceOnUse" x1="6.786584e-02" y1="278.6476" x2="1328.946" y2="278.6476" gradientTransform="matrix(1 0 0 -1 0 578)">
			<stop  offset="0" style="stop-color:#DC2430"/>
			<stop  offset="1" style="stop-color:#7B4397"/>
		</linearGradient>
		<path class="st18" d="M1298.6,301.3c-7.9,0-15.4,3.1-21.1,8.5l-89.1-73.3l-7.5,10.6l89.3,73.5c-6.2,15.6,1.5,33.4,17.1,39.5
			s33.4-1.5,39.5-17.1c6.2-15.6-1.5-33.4-17.1-39.5C1306.2,302,1302.5,301.3,1298.6,301.3z M1298.6,349.2c-9.7,0-17.6-7.9-17.6-17.6
			s7.9-17.6,17.6-17.6s17.6,7.9,17.6,17.6l0,0C1316.1,341.4,1308.3,349.2,1298.6,349.2z"/>
		
			<linearGradient id="SVGID_19_" gradientUnits="userSpaceOnUse" x1="6.786584e-02" y1="411.8242" x2="1328.946" y2="411.8242" gradientTransform="matrix(1 0 0 -1 0 578)">
			<stop  offset="0" style="stop-color:#DC2430"/>
			<stop  offset="1" style="stop-color:#7B4397"/>
		</linearGradient>
		<path class="st19" d="M400.9,177.2c1.2-9.6,10-16.4,19.6-15.2c5,0.6,9.6,3.5,12.5,7.7c4.4-0.4,8.9-0.6,13.6-0.6c0.1,0,0.3,0,0.4,0
			c-5.6-15.8-23.1-24.1-38.9-18.5c-13.6,4.9-21.9,18.6-19.9,32.9C392.3,181,396.6,179,400.9,177.2z"/>
		
			<linearGradient id="SVGID_20_" gradientUnits="userSpaceOnUse" x1="6.786584e-02" y1="145.1673" x2="1328.946" y2="145.1673" gradientTransform="matrix(1 0 0 -1 0 578)">
			<stop  offset="0" style="stop-color:#DC2430"/>
			<stop  offset="1" style="stop-color:#7B4397"/>
		</linearGradient>
		<path class="st20" d="M1162.8,406.2c-4.7,2.4-9.5,4.5-14.5,6.1c9.2,3.2,14,13.2,10.8,22.4c-3.2,9.2-13.2,14-22.4,10.8
			c-9.2-3.2-14-13.2-10.8-22.4c0.8-2.3,2.1-4.5,3.8-6.3c-6.2,1-12.6,1.6-18.9,1.8l2.1,2.8c-4.1,16.3,5.7,32.9,22,37.1
			s32.9-5.7,37.1-22C1174.8,425.4,1171.3,413.8,1162.8,406.2z"/>
		
			<linearGradient id="SVGID_21_" gradientUnits="userSpaceOnUse" x1="6.786584e-02" y1="380.6098" x2="1328.946" y2="380.6098" gradientTransform="matrix(1 0 0 -1 0 578)">
			<stop  offset="0" style="stop-color:#DC2430"/>
			<stop  offset="1" style="stop-color:#7B4397"/>
		</linearGradient>
		<path class="st21" d="M535,194.6c2.8,1.9,5.5,4,8.2,6.1l12,9.8l-1.3,1.8l35.6,8.3l-11.9,70.1l21.9-52l2.6-15.1l3.5,0.8l5.1-12
			l-6.4-1.5l8-46.3c16.5-3.1,27.6-19,24.5-35.5s-19-27.6-35.5-24.5s-27.6,19-24.5,35.5c0.7,4.2,2.3,8.1,4.7,11.5L545,196.9
			L535,194.6z M606.6,117c9.7,0,17.6,7.9,17.6,17.6s-7.9,17.6-17.6,17.6s-17.6-7.9-17.6-17.6l0,0C589.1,124.9,596.9,117,606.6,117z
			 M590.7,160.6c2.6,1.6,5.4,2.8,8.4,3.6l-7.5,43.8l-32.7-7.7L590.7,160.6z"/>
		
			<linearGradient id="SVGID_22_" gradientUnits="userSpaceOnUse" x1="6.786584e-02" y1="187.45" x2="1328.946" y2="187.45" gradientTransform="matrix(1 0 0 -1 0 578)">
			<stop  offset="0" style="stop-color:#DC2430"/>
			<stop  offset="1" style="stop-color:#7B4397"/>
		</linearGradient>
		<polygon class="st22" points="695.5,377.8 685,377.8 632.6,389 626.8,403.3 699.6,387.9 		"/>
	</g>
	<g>
		<path class="st23" d="M238.9,402.5c-15,0-28.5-1.9-40.4-5.7c-11.3-3.5-21.8-9.4-30.5-17.6c-8.4-7.9-14.8-17.9-19.3-29.9
			S142,323,142,306.6V189.2h59.3v116.5c0,15.2,3.5,26.4,10.4,33.7c6.9,7.2,16.2,10.9,28,10.9c11.6,0,21-3.5,27.9-10.5
			c6.9-6.9,10.4-17.9,10.4-32.7V189.2h59.3v116.2c0,16.9-2.3,31.5-7,43.9c-4.7,12.2-11.2,22.4-19.8,30.2
			c-8.8,8.1-19.4,14.1-30.8,17.6C267.3,400.7,253.9,402.5,238.9,402.5z"/>
		<path class="st23" d="M453.7,402.2c-18.2,0.1-36.2-2.9-53.4-8.8c-16.5-5.6-31.7-14.5-44.7-26.2l32.4-38.7
			c20.9,16.7,43.6,25.1,68,25.1c7.8,0,13.7-1.2,17.8-3.8c3.9-2.1,6.2-6.2,6.1-10.6v-0.6c0-2-0.5-4.1-1.5-5.8c-1.4-2-3.3-3.8-5.5-4.9
			c-3.5-1.9-7-3.5-10.8-4.6c-4.5-1.5-10.3-3.1-17.6-4.6c-11.2-2.6-21.5-5.4-31.1-8.5c-8.9-2.8-17.3-6.7-25-11.9
			c-6.9-4.7-12.7-10.9-16.7-18.3c-4.1-7.2-6.1-16.2-6.1-27v-0.6c-0.1-9.3,1.7-18.5,5.5-26.8c3.7-8.2,9.3-15.4,16.1-21.2
			c7.6-6.2,16.2-10.9,25.6-13.9c10.9-3.5,22.4-5.1,33.8-4.9c18,0,34,2.3,48.1,7c13.9,4.6,26.8,11.7,38.2,20.9l-29,41.2
			c-9.1-6.5-19-11.7-29.5-15.4c-9.4-3.4-19.2-5.1-29.2-5.2c-6.9,0-12.2,1.3-15.7,3.9c-3.5,2.6-5.2,5.8-5.2,9.6v0.6
			c0,2.2,0.5,4.4,1.6,6.2c1.4,2.1,3.4,3.8,5.7,4.9c3.6,1.8,7.2,3.4,11,4.5c4.7,1.5,10.6,3.1,17.8,4.6c11,2.3,21.8,5.4,32.5,9.1
			c8.8,3.1,17.1,7.3,24.7,12.7c6.5,4.7,11.8,10.9,15.5,18.1c3.6,7,5.4,15.5,5.4,25.2v0.6c0,10.7-2,20.3-6.1,28.7
			s-9.9,15.6-17.3,21.3c-8,6.1-16.9,10.7-26.6,13.5C477.2,400.8,465.5,402.4,453.7,402.2z"/>
		<path class="st23" d="M639,187.7h55.9l89.2,211h-62.3l-15.3-37.5h-80.8l-14.8,37.5h-61L639,187.7z M689.9,316.4l-23.4-59.5
			l-23.7,59.5H689.9z"/>
		<path class="st23" d="M905.4,402.8c-14.5,0.1-28.8-2.7-42.2-8.1c-12.9-5.2-24.5-12.9-34.3-22.6c-20.5-20.6-31.8-48.6-31.5-77.7
			v-0.6c-0.2-28.9,11.1-56.8,31.4-77.4c9.9-10,21.8-17.9,34.9-23.2c14-5.7,29-8.6,44.1-8.4c9.9-0.1,19.7,0.9,29.3,3.2
			c8.4,1.9,16.4,5,24.1,9c7.1,3.8,13.8,8.5,19.8,13.9c5.8,5.3,11.1,11.2,15.7,17.7L953,262.5c-5.5-7.1-12.1-13.2-19.8-18
			c-7.1-4.4-15.8-6.5-26-6.6c-6.9-0.1-13.9,1.4-20.2,4.4c-6,2.9-11.3,6.8-15.7,11.8c-4.5,5.2-8,11.2-10.3,17.7
			c-2.6,6.9-3.8,14.2-3.8,21.5v0.6c0,7.5,1.2,14.9,3.8,22c2.2,6.5,5.8,12.6,10.3,17.8c4.4,5,9.7,9,15.7,11.8
			c6.3,3,13.3,4.4,20.2,4.4c5,0,10-0.5,14.8-1.8c4.3-1.1,8.5-2.9,12.2-5.2c3.8-2.3,7.2-5,10.5-8.1c3.5-3.3,6.7-6.7,9.7-10.3
			l43.7,31.1c-4.9,6.7-10.4,13.1-16.3,18.9c-6,5.8-12.8,10.9-20,15c-8,4.4-16.3,7.7-25.1,9.9C926.4,401.8,915.9,402.9,905.4,402.8z"
			/>
		<path class="st23" d="M1105.3,402.2c-18.2,0.1-36.2-2.9-53.4-8.8c-16.5-5.6-31.7-14.5-44.7-26.2l32.4-38.7
			c20.9,16.7,43.6,25.1,68,25.1c7.8,0,13.7-1.2,17.8-3.8c3.9-2.1,6.2-6.2,6.1-10.6v-0.6c0-2-0.5-4.1-1.5-5.8c-1.4-2-3.3-3.8-5.5-4.9
			c-3.5-1.9-7-3.5-10.8-4.6c-4.5-1.5-10.3-3.1-17.6-4.6c-11.1-2.6-21.5-5.4-31.1-8.5c-8.9-2.8-17.3-6.7-25-11.9
			c-6.9-4.7-12.7-10.9-16.7-18.3c-4.1-7.2-6.1-16.2-6.1-27v-0.6c-0.1-9.3,1.7-18.5,5.5-26.8c3.7-8.2,9.3-15.4,16.1-21.2
			c7.6-6.2,16.2-10.9,25.6-13.9c10.9-3.5,22.4-5.1,33.8-4.9c18,0,34,2.3,48.1,7c13.9,4.6,26.8,11.7,38.2,20.9l-29,41.1
			c-9.1-6.5-19-11.7-29.5-15.4c-9.4-3.4-19.2-5.1-29.2-5.2c-6.9,0-12.2,1.3-15.7,3.9c-3.5,2.6-5.2,5.8-5.2,9.6v0.6
			c0,2.2,0.5,4.4,1.6,6.2c1.4,2.1,3.4,3.8,5.7,4.9c3.6,1.8,7.2,3.4,11,4.5c4.7,1.5,10.6,3.1,17.8,4.6c11,2.3,21.8,5.4,32.5,9.1
			c8.8,3.1,17.1,7.3,24.7,12.7c6.5,4.7,11.8,10.9,15.5,18.1c3.6,7,5.4,15.5,5.4,25.2v0.6c0,10.7-2,20.3-6.1,28.7
			c-4.1,8.4-9.9,15.6-17.3,21.3c-8,6.1-16.9,10.7-26.6,13.5C1128.7,400.8,1117,402.4,1105.3,402.2z"/>
		<path class="st23" d="M857.3,178.1c1.3-0.5,2.8-1.1,4.1-1.6c-16.1-4.9-33.1,4.2-38.1,20.3c-0.3,0.9-0.5,1.9-0.7,2.9
			C832.9,190.5,844.7,183.3,857.3,178.1z"/>
		<path class="st23" d="M952.1,157.8l-1.9,16.8c4.2,1.3,8.4,3,12.5,4.8l2.4-21.3c16.5-3.2,27.4-19.2,24.1-35.7S970,95,953.5,98.2
			s-27.4,19.2-24.1,35.7C931.6,145.7,940.6,155,952.1,157.8z M959.3,110.6c9.7,0,17.6,7.9,17.6,17.6s-7.9,17.6-17.6,17.6
			s-17.6-7.9-17.6-17.6C941.7,118.5,949.6,110.6,959.3,110.6L959.3,110.6z"/>
		<path class="st23" d="M729.7,227.5c1.8,2.3,3.1,5.2,3.5,8.2l8.1,19.2c3.3-4.9,5-10.7,5-16.6c0-0.1,0-0.1,0-0.1l54.9-13.6
			c3.8-5.8,8.1-11.3,12.9-16.4l-70.5,17.5c-4.1-8.9-12.2-15.3-21.8-17.1L729.7,227.5z"/>
		<path class="st23" d="M1077.3,170.5c-2.4-9.4,3.2-19,12.6-21.4s19,3.2,21.4,12.6c0.7,2.6,0.7,5.2,0.2,7.9
			c4.4,0.3,8.7,0.7,12.9,1.3c2.7-16.6-8.8-32.3-25.3-34.8c-16.6-2.7-32.3,8.8-34.8,25.3c-0.6,4-0.5,8,0.5,11.8
			C1068.8,172,1073,171.1,1077.3,170.5z"/>
		<path class="st23" d="M941.8,313.7l5.9-7l2.4-21.1l-0.1,0.1l-10.2-12.9c-0.3-0.4-0.7-0.9-1.1-1.3l-6,51.8c0.2-0.2,0.4-0.3,0.5-0.5
			C936.4,319.8,939.2,316.9,941.8,313.7z"/>
		<path class="st23" d="M1029.4,314.8l1.9-2.3c-0.3-0.2-0.5-0.4-0.8-0.5c-3.3-2.2-6.4-4.8-9.3-7.6L1029.4,314.8z"/>
		<path class="st23" d="M1006.2,296.4c2.4,0,4.9-0.3,7.2-0.9c-1.7-2.3-3.3-4.7-4.7-7.2c-0.8-1.5-1.6-3.2-2.3-4.8h-0.1
			c-9.7,0-17.6-7.9-17.6-17.6c0-7.6,4.8-14.2,11.8-16.6c0-0.9,0.1-1.9,0.1-2.9l-24.9,19.3v0.1C975.7,282.7,989.4,296.4,1006.2,296.4
			z"/>
		<path class="st23" d="M217.7,265c7.6-6.1,18.6-5,24.7,2.6c6.1,7.6,5,18.6-2.6,24.7c-6.4,5.2-15.7,5.2-22.1,0v13.3c0,0.5,0,1,0,1.5
			c1.2,0.5,2.4,0.9,3.7,1.2l-1.8,12.4c0.7,2.7,2,5.1,4,7.2s4.6,3.8,7.3,4.6l3.5-23.8c16.5-3.1,27.4-19,24.3-35.5
			c-1.3-6.9-5-13.2-10.3-17.7l12.9-18.1v-22.3l-24.4,34.2c-6.3-1.7-13.1-1.4-19.1,1L217.7,265L217.7,265z"/>
		<path class="st23" d="M394.9,409.2c-0.3-0.1-0.7-0.2-1-0.4c-8.2,5.1-19,2.7-24.1-5.5c-1.3-2.1-2.1-4.5-2.6-6.9
			c-4.3-2.6-8.5-5.3-12.5-8.4c0,0.2-0.1,0.3-0.1,0.5l-38,7.1c-9.6,7.7-20.6,13.5-32.4,17c-13.7,4.3-29,6.4-45.5,6.4
			c-11.1,0.1-22.4-1-33.3-3.3l-0.4,2.9c-16.1-4.8-33.2,4.4-38,20.5s4.4,33.2,20.5,38s33.2-4.4,38-20.5c3.1-10.3,0.5-21.5-6.8-29.5
			L355,401.4c4.2,16.3,20.8,26.1,37.1,21.9c6.3-1.6,11.9-5.2,16-10.2C403.7,412,399.3,410.7,394.9,409.2z M196.5,465.5
			c-9.7,0-17.6-7.9-17.6-17.6s7.9-17.6,17.6-17.6s17.6,7.9,17.6,17.6l0,0C214,457.6,206.2,465.5,196.5,465.5z"/>
		<path class="st23" d="M125.3,252.8L60.5,237c-2.9-16.5-18.6-27.7-35.2-24.8C8.8,215-2.3,230.7,0.5,247.4
			c2.9,16.5,18.6,27.7,35.2,24.8c11.6-2,21.1-10.6,24.2-22l65.4,15.9V252.8z M30.5,259.7c-9.7,0-17.6-7.9-17.6-17.6
			c0-9.7,7.9-17.6,17.6-17.6s17.6,7.9,17.6,17.6l0,0C48.1,251.9,40.2,259.7,30.5,259.7L30.5,259.7z"/>
		<path class="st23" d="M334.5,172.6c10.1-13.5,7.5-32.6-6-42.7s-32.6-7.5-42.7,6c-8.2,10.8-8.2,25.8,0,36.6h48.7V172.6z
			 M310.1,136.7c9.7,0,17.6,7.9,17.6,17.6s-7.9,17.6-17.6,17.6c-3.5,0-6.8-1-9.8-3l-0.4-0.3c-8-5.6-9.8-16.5-4.3-24.5
			C299.1,139.6,304.4,136.7,310.1,136.7z"/>
		<path class="st23" d="M582.3,415.2c-6.1,7.5-17.3,8.5-24.7,2.3c-0.8-0.7-1.6-1.5-2.3-2.3h-14.8c6.1,15.6,23.9,23.3,39.5,17.1
			c7.9-3.1,14.1-9.3,17.1-17.1H582.3z"/>
		<path class="st23" d="M940.8,415.3c-0.8,0.2-1.6,0.4-2.4,0.6c8.4,4.8,11.3,15.6,6.4,24c-4.9,8.4-15.6,11.3-24,6.4
			c-8.4-4.8-11.3-15.6-6.4-24c0.7-1.2,1.5-2.3,2.4-3.4c-3.7,0.2-7.6,0.4-11.4,0.4c-1.3,0-2.7,0-3.9-0.1c-0.4,0.9-0.7,1.8-1,2.9
			l-9.3-3.6c-11.7-1.2-23.3-4.1-34.2-8.6c-9.2-3.8-17.9-8.6-25.8-14.4l-33.7-12.9c6.2-15.6-1.4-33.3-17-39.5
			c-0.6-0.2-1.3-0.5-1.9-0.7l20.9,49.6l2.7,6.2l97.4,37.2c2.4,16.6,18,28.1,34.6,25.6c16.6-2.4,28.1-18,25.6-34.6
			c-0.8-5.5-3.2-10.7-6.7-15.1C949,412.9,945,414.2,940.8,415.3z"/>
		<path class="st23" d="M1298.6,301.3c-7.9,0-15.4,3.1-21.1,8.5l-89.1-73.3l-7.5,10.6l89.3,73.5c-6.2,15.6,1.5,33.4,17.1,39.5
			s33.4-1.5,39.5-17.1c6.2-15.6-1.5-33.4-17.1-39.5C1306.2,302,1302.5,301.3,1298.6,301.3z M1298.6,349.2c-9.7,0-17.6-7.9-17.6-17.6
			s7.9-17.6,17.6-17.6s17.6,7.9,17.6,17.6l0,0C1316.1,341.4,1308.3,349.2,1298.6,349.2z"/>
		<path class="st23" d="M400.9,177.2c1.2-9.6,10-16.4,19.6-15.2c5,0.6,9.6,3.5,12.5,7.7c4.4-0.4,8.9-0.6,13.6-0.6c0.1,0,0.3,0,0.4,0
			c-5.6-15.8-23.1-24.1-38.9-18.5c-13.6,4.9-21.9,18.6-19.9,32.9C392.3,181,396.6,179,400.9,177.2z"/>
		<path class="st23" d="M1162.8,406.2c-4.7,2.4-9.5,4.5-14.5,6.1c9.2,3.2,14,13.2,10.8,22.4c-3.2,9.2-13.2,14-22.4,10.8
			c-9.2-3.2-14-13.2-10.8-22.4c0.8-2.3,2.1-4.5,3.8-6.3c-6.2,1-12.6,1.6-18.9,1.8l2.1,2.8c-4.1,16.3,5.7,32.9,22,37.1
			s32.9-5.7,37.1-22C1174.8,425.4,1171.3,413.8,1162.8,406.2z"/>
		<path class="st23" d="M535,194.6c2.8,1.9,5.5,4,8.2,6.1l12,9.8l-1.3,1.8l35.6,8.3l-11.9,70.1l21.9-52l2.6-15.1l3.5,0.8l5.1-12
			l-6.4-1.5l8-46.3c16.5-3.1,27.6-19,24.5-35.5s-19-27.6-35.5-24.5s-27.6,19-24.5,35.5c0.7,4.2,2.3,8.1,4.7,11.5L545,196.9
			L535,194.6z M606.6,117c9.7,0,17.6,7.9,17.6,17.6s-7.9,17.6-17.6,17.6s-17.6-7.9-17.6-17.6l0,0C589.1,124.9,596.9,117,606.6,117z
			 M590.7,160.6c2.6,1.6,5.4,2.8,8.4,3.6l-7.5,43.8l-32.7-7.7L590.7,160.6z"/>
		<path class="st23" d="M449.2,337L449.2,337c-2.4-0.6-5.3-1.3-8.4-2h-0.1h-0.1c-1.8-0.4-3.6-0.8-5.4-1.3l-0.7,0.9
			C439.4,335.8,444.3,336.6,449.2,337z"/>
		<polygon class="st23" points="695.5,377.8 685,377.8 632.6,389 626.8,403.3 699.6,387.9 		"/>
		<path class="st23" d="M238.9,402.5c-15,0-28.5-1.9-40.4-5.7c-11.3-3.5-21.8-9.4-30.5-17.6c-8.4-7.9-14.8-17.9-19.3-29.9
			S142,323,142,306.6V189.2h59.3v116.5c0,15.2,3.5,26.4,10.4,33.7c6.9,7.2,16.2,10.9,28,10.9c11.6,0,21-3.5,27.9-10.5
			c6.9-6.9,10.4-17.9,10.4-32.7V189.2h59.3v116.2c0,16.9-2.3,31.5-7,43.9c-4.7,12.2-11.2,22.4-19.8,30.2
			c-8.8,8.1-19.4,14.1-30.8,17.6C267.3,400.7,253.9,402.5,238.9,402.5z"/>
		<path class="st23" d="M453.7,402.2c-18.2,0.1-36.2-2.9-53.4-8.8c-16.5-5.6-31.7-14.5-44.7-26.2l32.4-38.7
			c20.9,16.7,43.6,25.1,68,25.1c7.8,0,13.7-1.2,17.8-3.8c3.9-2.1,6.2-6.2,6.1-10.6v-0.6c0-2-0.5-4.1-1.5-5.8c-1.4-2-3.3-3.8-5.5-4.9
			c-3.5-1.9-7-3.5-10.8-4.6c-4.5-1.5-10.3-3.1-17.6-4.6c-11.2-2.6-21.5-5.4-31.1-8.5c-8.9-2.8-17.3-6.7-25-11.9
			c-6.9-4.7-12.7-10.9-16.7-18.3c-4.1-7.2-6.1-16.2-6.1-27v-0.6c-0.1-9.3,1.7-18.5,5.5-26.8c3.7-8.2,9.3-15.4,16.1-21.2
			c7.6-6.2,16.2-10.9,25.6-13.9c10.9-3.5,22.4-5.1,33.8-4.9c18,0,34,2.3,48.1,7c13.9,4.6,26.8,11.7,38.2,20.9l-29,41.2
			c-9.1-6.5-19-11.7-29.5-15.4c-9.4-3.4-19.2-5.1-29.2-5.2c-6.9,0-12.2,1.3-15.7,3.9c-3.5,2.6-5.2,5.8-5.2,9.6v0.6
			c0,2.2,0.5,4.4,1.6,6.2c1.4,2.1,3.4,3.8,5.7,4.9c3.6,1.8,7.2,3.4,11,4.5c4.7,1.5,10.6,3.1,17.8,4.6c11,2.3,21.8,5.4,32.5,9.1
			c8.8,3.1,17.1,7.3,24.7,12.7c6.5,4.7,11.8,10.9,15.5,18.1c3.6,7,5.4,15.5,5.4,25.2v0.6c0,10.7-2,20.3-6.1,28.7
			s-9.9,15.6-17.3,21.3c-8,6.1-16.9,10.7-26.6,13.5C477.2,400.8,465.5,402.4,453.7,402.2z"/>
		<path class="st23" d="M639,187.7h55.9l89.2,211h-62.3l-15.3-37.5h-80.8l-14.8,37.5h-61L639,187.7z M689.9,316.4l-23.4-59.5
			l-23.7,59.5H689.9z"/>
		<path class="st23" d="M905.4,402.8c-14.5,0.1-28.8-2.7-42.2-8.1c-12.9-5.2-24.5-12.9-34.3-22.6c-20.5-20.6-31.8-48.6-31.5-77.7
			v-0.6c-0.2-28.9,11.1-56.8,31.4-77.4c9.9-10,21.8-17.9,34.9-23.2c14-5.7,29-8.6,44.1-8.4c9.9-0.1,19.7,0.9,29.3,3.2
			c8.4,1.9,16.4,5,24.1,9c7.1,3.8,13.8,8.5,19.8,13.9c5.8,5.3,11.1,11.2,15.7,17.7L953,262.5c-5.5-7.1-12.1-13.2-19.8-18
			c-7.1-4.4-15.8-6.5-26-6.6c-6.9-0.1-13.9,1.4-20.2,4.4c-6,2.9-11.3,6.8-15.7,11.8c-4.5,5.2-8,11.2-10.3,17.7
			c-2.6,6.9-3.8,14.2-3.8,21.5v0.6c0,7.5,1.2,14.9,3.8,22c2.2,6.5,5.8,12.6,10.3,17.8c4.4,5,9.7,9,15.7,11.8
			c6.3,3,13.3,4.4,20.2,4.4c5,0,10-0.5,14.8-1.8c4.3-1.1,8.5-2.9,12.2-5.2c3.8-2.3,7.2-5,10.5-8.1c3.5-3.3,6.7-6.7,9.7-10.3
			l43.7,31.1c-4.9,6.7-10.4,13.1-16.3,18.9c-6,5.8-12.8,10.9-20,15c-8,4.4-16.3,7.7-25.1,9.9C926.4,401.8,915.9,402.9,905.4,402.8z"
			/>
		<path class="st23" d="M1105.3,402.2c-18.2,0.1-36.2-2.9-53.4-8.8c-16.5-5.6-31.7-14.5-44.7-26.2l32.4-38.7
			c20.9,16.7,43.6,25.1,68,25.1c7.8,0,13.7-1.2,17.8-3.8c3.9-2.1,6.2-6.2,6.1-10.6v-0.6c0-2-0.5-4.1-1.5-5.8c-1.4-2-3.3-3.8-5.5-4.9
			c-3.5-1.9-7-3.5-10.8-4.6c-4.5-1.5-10.3-3.1-17.6-4.6c-11.1-2.6-21.5-5.4-31.1-8.5c-8.9-2.8-17.3-6.7-25-11.9
			c-6.9-4.7-12.7-10.9-16.7-18.3c-4.1-7.2-6.1-16.2-6.1-27v-0.6c-0.1-9.3,1.7-18.5,5.5-26.8c3.7-8.2,9.3-15.4,16.1-21.2
			c7.6-6.2,16.2-10.9,25.6-13.9c10.9-3.5,22.4-5.1,33.8-4.9c18,0,34,2.3,48.1,7c13.9,4.6,26.8,11.7,38.2,20.9l-29,41.1
			c-9.1-6.5-19-11.7-29.5-15.4c-9.4-3.4-19.2-5.1-29.2-5.2c-6.9,0-12.2,1.3-15.7,3.9c-3.5,2.6-5.2,5.8-5.2,9.6v0.6
			c0,2.2,0.5,4.4,1.6,6.2c1.4,2.1,3.4,3.8,5.7,4.9c3.6,1.8,7.2,3.4,11,4.5c4.7,1.5,10.6,3.1,17.8,4.6c11,2.3,21.8,5.4,32.5,9.1
			c8.8,3.1,17.1,7.3,24.7,12.7c6.5,4.7,11.8,10.9,15.5,18.1c3.6,7,5.4,15.5,5.4,25.2v0.6c0,10.7-2,20.3-6.1,28.7
			c-4.1,8.4-9.9,15.6-17.3,21.3c-8,6.1-16.9,10.7-26.6,13.5C1128.7,400.8,1117,402.4,1105.3,402.2z"/>
		<path class="st23" d="M857.3,178.1c1.3-0.5,2.8-1.1,4.1-1.6c-16.1-4.9-33.1,4.2-38.1,20.3c-0.3,0.9-0.5,1.9-0.7,2.9
			C832.9,190.5,844.7,183.3,857.3,178.1z"/>
		<path class="st23" d="M952.1,157.8l-1.9,16.8c4.2,1.3,8.4,3,12.5,4.8l2.4-21.3c16.5-3.2,27.4-19.2,24.1-35.7S970,95,953.5,98.2
			s-27.4,19.2-24.1,35.7C931.6,145.7,940.6,155,952.1,157.8z M959.3,110.6c9.7,0,17.6,7.9,17.6,17.6s-7.9,17.6-17.6,17.6
			s-17.6-7.9-17.6-17.6C941.7,118.5,949.6,110.6,959.3,110.6L959.3,110.6z"/>
		<path class="st23" d="M729.7,227.5c1.8,2.3,3.1,5.2,3.5,8.2l8.1,19.2c3.3-4.9,5-10.7,5-16.6c0-0.1,0-0.1,0-0.1l54.9-13.6
			c3.8-5.8,8.1-11.3,12.9-16.4l-70.5,17.5c-4.1-8.9-12.2-15.3-21.8-17.1L729.7,227.5z"/>
		<path class="st23" d="M1077.3,170.5c-2.4-9.4,3.2-19,12.6-21.4s19,3.2,21.4,12.6c0.7,2.6,0.7,5.2,0.2,7.9
			c4.4,0.3,8.7,0.7,12.9,1.3c2.7-16.6-8.8-32.3-25.3-34.8c-16.6-2.7-32.3,8.8-34.8,25.3c-0.6,4-0.5,8,0.5,11.8
			C1068.8,172,1073,171.1,1077.3,170.5z"/>
		<path class="st23" d="M941.8,313.7l5.9-7l2.4-21.1l-0.1,0.1l-10.2-12.9c-0.3-0.4-0.7-0.9-1.1-1.3l-6,51.8c0.2-0.2,0.4-0.3,0.5-0.5
			C936.4,319.8,939.2,316.9,941.8,313.7z"/>
		<path class="st23" d="M1006.2,296.4c2.4,0,4.9-0.3,7.2-0.9c-1.7-2.3-3.3-4.7-4.7-7.2c-0.8-1.5-1.6-3.2-2.3-4.8h-0.1
			c-9.7,0-17.6-7.9-17.6-17.6c0-7.6,4.8-14.2,11.8-16.6c0-0.9,0.1-1.9,0.1-2.9l-24.9,19.3v0.1C975.7,282.7,989.4,296.4,1006.2,296.4
			z"/>
		<path class="st23" d="M217.7,265c7.6-6.1,18.6-5,24.7,2.6c6.1,7.6,5,18.6-2.6,24.7c-6.4,5.2-15.7,5.2-22.1,0v13.3c0,0.5,0,1,0,1.5
			c1.2,0.5,2.4,0.9,3.7,1.2l-1.8,12.4c0.7,2.7,2,5.1,4,7.2s4.6,3.8,7.3,4.6l3.5-23.8c16.5-3.1,27.4-19,24.3-35.5
			c-1.3-6.9-5-13.2-10.3-17.7l12.9-18.1v-22.3l-24.4,34.2c-6.3-1.7-13.1-1.4-19.1,1L217.7,265L217.7,265z"/>
		<path class="st23" d="M394.9,409.2c-0.3-0.1-0.7-0.2-1-0.4c-8.2,5.1-19,2.7-24.1-5.5c-1.3-2.1-2.1-4.5-2.6-6.9
			c-4.3-2.6-8.5-5.3-12.5-8.4c0,0.2-0.1,0.3-0.1,0.5l-38,7.1c-9.6,7.7-20.6,13.5-32.4,17c-13.7,4.3-29,6.4-45.5,6.4
			c-11.1,0.1-22.4-1-33.3-3.3l-0.4,2.9c-16.1-4.8-33.2,4.4-38,20.5s4.4,33.2,20.5,38s33.2-4.4,38-20.5c3.1-10.3,0.5-21.5-6.8-29.5
			L355,401.4c4.2,16.3,20.8,26.1,37.1,21.9c6.3-1.6,11.9-5.2,16-10.2C403.7,412,399.3,410.7,394.9,409.2z M196.5,465.5
			c-9.7,0-17.6-7.9-17.6-17.6s7.9-17.6,17.6-17.6s17.6,7.9,17.6,17.6l0,0C214,457.6,206.2,465.5,196.5,465.5z"/>
		<path class="st23" d="M125.3,252.8L60.5,237c-2.9-16.5-18.6-27.7-35.2-24.8C8.8,215-2.3,230.7,0.5,247.4
			c2.9,16.5,18.6,27.7,35.2,24.8c11.6-2,21.1-10.6,24.2-22l65.4,15.9V252.8z M30.5,259.7c-9.7,0-17.6-7.9-17.6-17.6
			c0-9.7,7.9-17.6,17.6-17.6s17.6,7.9,17.6,17.6l0,0C48.1,251.9,40.2,259.7,30.5,259.7L30.5,259.7z"/>
		<path class="st23" d="M334.5,172.6c10.1-13.5,7.5-32.6-6-42.7s-32.6-7.5-42.7,6c-8.2,10.8-8.2,25.8,0,36.6h48.7V172.6z
			 M310.1,136.7c9.7,0,17.6,7.9,17.6,17.6s-7.9,17.6-17.6,17.6c-3.5,0-6.8-1-9.8-3l-0.4-0.3c-8-5.6-9.8-16.5-4.3-24.5
			C299.1,139.6,304.4,136.7,310.1,136.7z"/>
		<path class="st23" d="M582.3,415.2c-6.1,7.5-17.3,8.5-24.7,2.3c-0.8-0.7-1.6-1.5-2.3-2.3h-14.8c6.1,15.6,23.9,23.3,39.5,17.1
			c7.9-3.1,14.1-9.3,17.1-17.1H582.3z"/>
		<path class="st23" d="M940.8,415.3c-0.8,0.2-1.6,0.4-2.4,0.6c8.4,4.8,11.3,15.6,6.4,24c-4.9,8.4-15.6,11.3-24,6.4
			c-8.4-4.8-11.3-15.6-6.4-24c0.7-1.2,1.5-2.3,2.4-3.4c-3.7,0.2-7.6,0.4-11.4,0.4c-1.3,0-2.7,0-3.9-0.1c-0.4,0.9-0.7,1.8-1,2.9
			l-9.3-3.6c-11.7-1.2-23.3-4.1-34.2-8.6c-9.2-3.8-17.9-8.6-25.8-14.4l-33.7-12.9c6.2-15.6-1.4-33.3-17-39.5
			c-0.6-0.2-1.3-0.5-1.9-0.7l20.9,49.6l2.7,6.2l97.4,37.2c2.4,16.6,18,28.1,34.6,25.6c16.6-2.4,28.1-18,25.6-34.6
			c-0.8-5.5-3.2-10.7-6.7-15.1C949,412.9,945,414.2,940.8,415.3z"/>
		<path class="st23" d="M1298.6,301.3c-7.9,0-15.4,3.1-21.1,8.5l-89.1-73.3l-7.5,10.6l89.3,73.5c-6.2,15.6,1.5,33.4,17.1,39.5
			s33.4-1.5,39.5-17.1c6.2-15.6-1.5-33.4-17.1-39.5C1306.2,302,1302.5,301.3,1298.6,301.3z M1298.6,349.2c-9.7,0-17.6-7.9-17.6-17.6
			s7.9-17.6,17.6-17.6s17.6,7.9,17.6,17.6l0,0C1316.1,341.4,1308.3,349.2,1298.6,349.2z"/>
		<path class="st23" d="M400.9,177.2c1.2-9.6,10-16.4,19.6-15.2c5,0.6,9.6,3.5,12.5,7.7c4.4-0.4,8.9-0.6,13.6-0.6c0.1,0,0.3,0,0.4,0
			c-5.6-15.8-23.1-24.1-38.9-18.5c-13.6,4.9-21.9,18.6-19.9,32.9C392.3,181,396.6,179,400.9,177.2z"/>
		<path class="st23" d="M1162.8,406.2c-4.7,2.4-9.5,4.5-14.5,6.1c9.2,3.2,14,13.2,10.8,22.4c-3.2,9.2-13.2,14-22.4,10.8
			c-9.2-3.2-14-13.2-10.8-22.4c0.8-2.3,2.1-4.5,3.8-6.3c-6.2,1-12.6,1.6-18.9,1.8l2.1,2.8c-4.1,16.3,5.7,32.9,22,37.1
			s32.9-5.7,37.1-22C1174.8,425.4,1171.3,413.8,1162.8,406.2z"/>
		<path class="st23" d="M535,194.6c2.8,1.9,5.5,4,8.2,6.1l12,9.8l-1.3,1.8l35.6,8.3l-11.9,70.1l21.9-52l2.6-15.1l3.5,0.8l5.1-12
			l-6.4-1.5l8-46.3c16.5-3.1,27.6-19,24.5-35.5s-19-27.6-35.5-24.5s-27.6,19-24.5,35.5c0.7,4.2,2.3,8.1,4.7,11.5L545,196.9
			L535,194.6z M606.6,117c9.7,0,17.6,7.9,17.6,17.6s-7.9,17.6-17.6,17.6s-17.6-7.9-17.6-17.6l0,0C589.1,124.9,596.9,117,606.6,117z
			 M590.7,160.6c2.6,1.6,5.4,2.8,8.4,3.6l-7.5,43.8l-32.7-7.7L590.7,160.6z"/>
		<polygon class="st23" points="695.5,377.8 685,377.8 632.6,389 626.8,403.3 699.6,387.9 		"/>
	</g>
</g>
</svg>
